<?xml version="1.0" encoding="UTF-8" standalone="no"?>
<svg x="0" y="0" width="229" height="229" viewBox="0 0 229 229" version="1.1" xmlns="http://www.w3.org/2000/svg" xmlns:xlink="http://www.w3.org/1999/xlink"
style="display: block;margin-left: auto;margin-right: auto;">
<defs>
<clipPath id="c_1"><path d="M0,0H229V229H0Z"/></clipPath>
<style type="text/css"><![CDATA[

.g0{
fill: #009DFF;
}

]]></style>

</defs>
<path d="M0,0
L0,229
L229,229
L229,0 Z "
fill="none" stroke="none"/>
<g clip-path="url(#c_1)">
<path d="M94.3,224.3c-2.4,-1.1,-4.6,-2.8,-6.7,-4.5c-3,-2.3,-5.9,-5,-8.6,-7.7c-.2,0,-.3,.1,-.5,.1c-1.3,.4,-3.9,-1.3,-4.8,-2c-6,-3.9,-11.4,-8.7,-16.2,-13.9C54.4,193,51.2,189.5,48.9,185.5c-4.2,-3.1,-8,-6.9,-11.5,-10.6c-2.2,-2.4,-4.4,-4.8,-6.2,-7.5c-1.1,-1.7,-2.3,-3.3,-3.2,-5.1c-1.1,-2.5,-.9,-4.8,-.4,-7.4c.2,-.7,.4,-1.5,.6,-2.2c-3.2,-2.8,-6.1,-5.9,-8.7,-9c-2.9,-3.3,-5.7,-6.8,-7,-10.9c-.6,-1.9,.1,-4,.5,-5.8c.5,-2.2,1.3,-4.3,2.1,-6.4c1.6,-4.6,3.3,-9.1,5.4,-13.5c.7,-1.4,1.5,-2.9,2.2,-4.3c-.5,-.5,-.9,-1,-1.3,-1.5c-.6,-.8,-1.6,-2.1,-1.6,-3.3c.1,-4.5,1.8,-8.7,3.4,-12.9C25,80.4,27.3,75.9,29.4,71.3c2.2,-4.6,4.9,-9,7.5,-13.4C39.5,53.6,42.3,49.4,45,45.3C50.5,36.9,56.1,28.7,62.1,20.7C65,16.7,68.2,13,71.5,9.5C73,7.9,74.7,6.4,76.4,5.2c1.4,-1,2.8,-2,4.3,-2.6c2.5,-.9,4.8,.8,6.8,2.2c3.8,2.7,7.2,5.8,10.3,9.2c1.2,1.3,2.5,2.7,3.6,4.1c2.2,-1.5,4.5,-2.7,7,-3.6c1.1,-.4,2.2,-.7,3.4,-.8c1,-.1,2.6,.6,3.4,1c2.1,.9,4,2.4,5.7,3.8c1.4,1,2.7,2.2,4.1,3.4c1.5,-1.4,3.2,-2.6,5.1,-3.4c1.1,-.4,2.1,-.6,3.2,-.3c2.2,.5,4.4,2.1,6.1,3.4c2.9,2,5.6,4.3,8.1,6.7c.6,-.5,1.3,-.9,1.9,-1.2c.6,-.4,1.2,-.4,1.8,-.2c1.9,.5,3.8,1.9,5.3,3c4.2,3.2,8.2,6.6,11.9,10.5c1.2,-1.3,2.4,-2.6,4.3,-2.1c1.3,.3,2.5,1.1,3.6,1.8c2.3,1.3,4.5,3.2,6.6,4.9c3.8,3.3,7.6,7,10.8,11c1.1,.2,2.3,1,3.1,1.5c3,1.8,5.7,4.1,8.2,6.5c3,2.8,5.9,5.7,8.4,9c1,1.2,1.9,2.5,2.7,3.8c.5,.8,1.9,2.8,1.6,3.9c-1.4,5.2,-4.7,9.9,-7.5,14.4c-2.5,3.9,-4.9,7.9,-7.4,11.9c-1.6,2.7,-3.3,5.4,-4.9,8.1c.4,.3,.7,.6,1.1,.9c3.2,2.8,6.3,5.8,9.1,9.1c1.7,1.9,3.3,4,4.7,6.2c.5,1,2.3,3.5,1.3,4.7c-.5,.7,-.9,1.3,-1.4,2c-.2,.3,-.3,.6,-.5,.9c-.7,1.1,-1.3,2.1,-2,3.1c-1.3,2.1,-2.7,4,-4,6c-2.1,3.1,-4.2,6.1,-6.2,9.1c-2.9,4.7,-5.5,9.5,-8.2,14.4c-7.2,13.3,-12.8,27.3,-18.7,41.3c-.4,1,-3.7,-1,-4,-1.2c-1.9,-1.2,-3.7,-2.5,-5.3,-4c-.8,.6,-1.5,1.1,-2.4,1.6c-2,1,-3.7,.7,-5.7,-.3c-4.7,-2.2,-8.8,-5.9,-12.5,-9.4c-.5,-.5,-1,-.9,-1.5,-1.4c-3.9,6.6,-8,13.1,-12.6,19.2c-1.4,1.9,-3.3,4.6,-5.7,5.4c-1.2,.4,-1.8,.3,-2.9,0c-1.9,-.6,-3.8,-1.9,-5.3,-3c-2.2,-1.5,-4.2,-3.2,-6.2,-5c-1.5,2.4,-3.2,4.7,-4.9,6.9c-1.6,1.9,-3.5,3.6,-6,3.8q-.1,0,-.2,0c-1.1,0,-2.7,-.7,-3.6,-1.1ZM88.9,45.4c-.5,.3,-.7,1.4,-.8,2c-.2,.6,-.4,1.3,-.6,1.9c-.5,1.5,-.9,3.1,-1.3,4.6c-.7,3.1,-1.5,6.2,-2.1,9.4c-1.4,7.5,-2.7,15.2,-3.5,22.9c-.4,3.9,-.8,7.8,-1.1,11.7c-.2,3.7,-.1,7.5,0,11.3c.1,3.6,.4,7.1,.8,10.7c.4,3.7,.8,7.4,1.5,11.1c.7,3.9,1.6,7.8,2.8,11.6c1.1,3.5,2.8,6.9,4.5,10.1c4.3,8.1,10.5,15,17.7,20.6c2.6,2,5.3,3.7,8.4,4.9c2.1,.9,4.5,1.6,6.9,1.6c2,0,4.1,0,6,-.8c2,-.8,3.7,-2.1,5.1,-3.8c1,-1.1,2,-2.2,2.7,-3.6c.4,-1,.9,-2,1.3,-3c.8,-2,1.4,-4.2,1.8,-6.3c.6,-3.1,.9,-6.2,1.1,-9.4c.3,-4.2,.1,-8.3,-1.4,-12.3c-.2,-.5,-.5,-1.1,-.7,-1.6c4.5,-2.1,8.9,-4.6,12.6,-8c3.1,-2.8,6.4,-5.5,9.5,-8.2c.9,-.7,-1.1,-3.1,-1.4,-3.6c-1.2,-1.8,-2.7,-3.4,-4.3,-4.9c-1.8,-1.8,-3.7,-3.6,-5.9,-5c-.6,-.3,-1.8,-1.2,-2.6,-.7c-3.7,2.3,-7.3,4.8,-11,7c-2.1,1.3,-4.2,2.7,-6.3,3.9c-2,1,-3.9,2,-5.9,2.9c-1.3,-.9,-2.7,-1.6,-4.2,-2.2c-1.5,-.5,-3.3,-.1,-4.6,.5c-.7,.3,-1.4,.6,-2,1c-.5,.4,-1.8,1,-2.1,1.6c-.4,.6,-.6,.8,-.4,1.6c.3,.9,.6,1.6,1.1,2.4c2.2,3.6,5.3,6.7,8.5,9.4c.7,.7,1.6,1.4,2.4,2.1c-.3,4.6,-1.2,9.2,-2.7,13.5c-1.6,4,-4.3,8,-8.3,9.7c-2.1,.7,-4.2,.9,-6.5,.7c-.6,-.1,-1.2,-.3,-1.8,-.5c-.2,-.3,-.4,-.7,-.7,-1c-1.2,-2.3,-2.3,-4.5,-3.4,-6.8c-.9,-2.2,-1.7,-4.4,-2.4,-6.6c-.8,-2.3,-1.4,-4.6,-2,-6.9c-1.1,-4.3,-1.8,-8.7,-2.6,-13c-1,-6.6,-1.9,-13.1,-2.2,-19.8c-.2,-3.3,-.5,-6.6,-.6,-9.9c0,-3.7,0,-7.4,0,-11.1c.1,-6.6,.4,-13.4,1.1,-20C90,61,90.6,54.9,92,48.9q.1,0,.1,-.1c0,-.1,0,-.2,0,-.3c-.1,-.4,-.3,-.7,-.6,-1c-.4,-.6,-.9,-1.1,-1.5,-1.6c-.2,-.1,-.6,-.5,-.9,-.5q-.1,0,-.2,0Z" class="g0"/>

</g>
</svg>
